PathFileType	4	(X/Y/Z)	HSS_walk3.trc
DataRate	CameraRate	NumFrames	NumMarkers	Units	OrigDataRate	OrigDataStartFrame	OrigNumFrames
120.0	120.0	7	44	mm	120.0	497	992
Frame#	Time		R.Shoulder		Offset		L.Shoulder		R.Elbow		R.Wrist.Radial		R.Wrist		R.Hand		L.Elbow		L.Wrist.Radial		L.Wrist		L.Hand		R.Hip		V.Sacral		L.PSIS		L.Hip		R.Thigh.Upper		R.Thigh.Front		R.Thigh.Rear		X.Shell.Lower.Thigh.Right		R.Knee.Lateral		R.Shank.Upper		R.Shank.Front		R.Shank.Rear		X.Shell.Lower.Shank.Right		R.Ankle.Lateral		R.Heel		R.Toe		L.Thigh.Upper		L.Thigh.Front		L.Thigh.Rear		X.Shell.Lower.Thigh.Left		L.Knee.Lateral		L.Shank.Upper		L.Shank.Front		L.Shank.Rear		X.Shell.Lower.Shank.Left		L.Ankle.Lateral		L.Heel		L.Toe		R.Troc		L.Troc		R.PSIS		L.ASIS		R.ASIS
			X1	Y1	Z1	X2	Y2	Z2	X3	Y3	Z3	X4	Y4	Z4	X5	Y5	Z5	X6	Y6	Z6	X7	Y7	Z7	X8	Y8	Z8	X9	Y9	Z9	X10	Y10	Z10	X11	Y11	Z11	X12	Y12	Z12	X13	Y13	Z13	X14	Y14	Z14	X15	Y15	Z15	X16	Y16	Z16	X17	Y17	Z17	X18	Y18	Z18	X19	Y19	Z19	X20	Y20	Z20	X21	Y21	Z21	X22	Y22	Z22	X23	Y23	Z23	X24	Y24	Z24	X25	Y25	Z25	X26	Y26	Z26	X27	Y27	Z27	X28	Y28	Z28	X29	Y29	Z29	X30	Y30	Z30	X31	Y31	Z31	X32	Y32	Z32	X33	Y33	Z33	X34	Y34	Z34	X35	Y35	Z35	X36	Y36	Z36	X37	Y37	Z37	X38	Y38	Z38	X39	Y39	Z39	X40	Y40	Z40	X41	Y41	Z41	X42	Y42	Z42	X43	Y43	Z43	X44	Y44	Z44

497	4.13333	-1299.60229	1458.20911	4.36181	-1429.29016	1378.07092	-273.74231	-1304.71570	1472.10815	-366.25510	-1306.17908	1088.01062	58.72619	-1124.96069	904.79218	85.26753	-1094.03442	933.87518	25.95719	-1054.38269	857.07965	74.15553	-1405.77808	1126.33765	-405.11554	-1344.27820	878.73322	-414.05820	-1375.53552	897.05988	-476.23520	-1362.13342	809.27734	-466.89856	-1314.48901	1010.71741	-36.99201	-1418.49280	1006.30884	-201.66650	-1412.61658	1016.44604	-241.19980	-1279.42493	1025.41260	-329.92279	-1317.83997	662.18793	-5.49168	-1286.01917	621.65973	-13.72961	-1345.56531	626.32068	0.68755	-1318.80200	590.48291	-10.98116	-1396.71313	492.28201	-24.17381	-1504.75110	388.07483	20.32806	-1513.53003	336.96902	-1.84557	-1552.07129	383.32465	5.21050	-1562.82727	338.34680	-2.79639	-1726.38892	188.34773	-52.55930	-1774.81201	208.78671	-105.26763	-1687.35034	41.20439	-74.70369	-1157.51538	698.77686	-339.66373	-1129.24500	657.58472	-310.79440	-1174.46570	655.58875	-354.18036	-1141.96423	629.21246	-335.55756	-1183.13184	503.86414	-309.94281	-1201.65015	299.48410	-341.03796	-1174.65112	277.93375	-318.72797	-1231.98572	260.15308	-327.39951	-1208.06201	230.50917	-324.92480	-1196.15442	69.45186	-269.23654	-1251.86926	32.69892	-221.63901	-1053.69226	33.29272	-259.03589	-1332.53760	852.43530	-10.37280	-1252.71472	890.94104	-365.83871	-1423.75342	1009.67181	-156.11954	-1221.23083	986.57788	-279.71042	-1258.80957	968.55548	-62.36658
498	4.14167	-1291.66675	1459.71533	2.52805	-1419.80994	1378.95691	-276.32855	-1295.14954	1473.38440	-368.02969	-1299.68909	1089.80884	57.50046	-1119.52478	905.60431	84.56649	-1088.49023	934.29114	25.29249	-1049.14746	857.28284	73.17268	-1393.91211	1126.63501	-406.92517	-1329.16138	879.70874	-414.13431	-1360.36658	897.25507	-476.65979	-1346.42273	809.63574	-466.60425	-1306.14648	1011.53363	-38.19921	-1409.93774	1007.29755	-202.64966	-1403.70996	1017.46558	-242.24809	-1270.09167	1026.43945	-331.07190	-1303.69556	662.30701	-6.12833	-1270.96191	622.42358	-14.12178	-1330.95984	625.97046	0.39037	-1303.09436	590.66449	-11.16865	-1378.70813	491.27145	-24.18464	-1487.62280	388.69788	20.00515	-1497.37500	337.96539	-2.03853	-1535.00134	384.91364	4.65573	-1546.46948	340.14075	-3.68494	-1713.06335	194.90036	-53.93848	-1759.01782	218.49417	-107.49479	-1682.41028	45.29052	-74.90446	-1150.91150	698.59332	-339.94440	-1123.16577	657.22131	-311.16620	-1168.44849	655.65747	-354.72363	-1136.18384	628.96533	-335.88974	-1178.74609	503.72604	-310.30945	-1199.56714	299.34473	-341.28568	-1172.62549	277.60474	-319.23483	-1230.14233	260.37402	-327.47250	-1206.65332	230.47874	-325.11209	-1196.01270	69.39799	-269.25079	-1251.85828	32.81632	-221.67171	-1053.57117	33.14791	-258.83862	-1322.66382	852.36121	-11.63540	-1244.56946	891.25098	-366.72278	-1415.22131	1010.57190	-157.18388	-1212.54797	987.69220	-280.90280	-1250.16833	969.49506	-63.28735
499	4.15000	-1284.53369	1461.16125	1.08686	-1410.45129	1379.78430	-278.86487	-1285.38354	1474.35876	-369.83350	-1293.36182	1091.42053	56.20648	-1114.57288	906.13214	84.46297	-1082.99060	934.40411	24.40587	-1044.25891	857.17010	72.43474	-1381.99194	1126.73352	-408.85858	-1313.61353	880.54102	-414.51715	-1345.00427	897.28259	-477.15802	-1330.11548	809.95593	-466.22842	-1298.04956	1012.12433	-38.98822	-1401.30688	1008.10571	-203.43408	-1395.01501	1018.43878	-243.16476	-1261.14453	1027.50366	-332.08990	-1289.59839	662.78113	-6.45595	-1255.85815	623.60767	-14.75016	-1315.67932	625.61481	-0.30891	-1287.32849	591.15308	-11.53622	-1360.49622	490.62494	-24.10075	-1470.13684	389.63245	19.46576	-1480.84875	339.18668	-2.75376	-1517.55054	386.77026	4.28268	-1529.81702	342.37903	-4.07721	-1699.34949	201.66151	-55.99859	-1741.95288	227.36005	-110.37078	-1677.03162	49.31538	-75.55638	-1144.58215	698.57123	-340.35748	-1117.20972	656.73407	-311.44370	-1162.30017	655.65131	-355.13809	-1130.44153	628.79572	-336.47800	-1174.48254	503.62805	-310.90399	-1197.83667	299.29858	-341.40555	-1171.20789	277.79623	-320.30908	-1228.91528	260.81943	-327.34476	-1205.57727	230.47272	-325.17145	-1195.95239	69.34814	-269.20557	-1251.87170	32.83860	-221.69937	-1053.45837	33.00356	-258.69284	-1312.80505	852.13831	-12.85178	-1236.53357	891.77075	-367.65158	-1406.64600	1011.26636	-158.22697	-1203.85132	988.62512	-282.07736	-1241.70703	970.43634	-64.23836
500	4.15833	-1277.10364	1462.44360	-0.57322	-1400.95581	1380.56409	-281.44666	-1275.54346	1475.20374	-371.48132	-1287.11890	1092.80383	54.83746	-1109.75439	906.59717	83.95663	-1077.70996	934.38983	23.93554	-1039.72180	856.88147	71.80270	-1369.91260	1126.57166	-410.93097	-1297.59558	881.10376	-414.76822	-1329.40649	897.23059	-477.53046	-1313.33008	810.11975	-466.17526	-1290.03625	1012.64447	-39.92619	-1392.84241	1008.85901	-204.13486	-1386.83020	1018.83752	-244.15927	-1252.45911	1028.31152	-333.00143	-1274.99573	663.22644	-7.36358	-1240.65918	624.92419	-15.07809	-1300.35547	625.70496	-0.97545	-1271.24011	591.64886	-11.99634	-1341.90369	490.26935	-24.09954	-1451.69226	390.53510	17.38405	-1463.43433	340.64169	-4.40695	-1499.75476	388.74078	3.93197	-1512.65881	344.63339	-5.52029	-1684.39661	207.79407	-58.30403	-1723.79163	235.51328	-113.82547	-1670.09583	53.68832	-76.13728	-1138.27136	698.37805	-340.17319	-1111.27698	656.23267	-311.27972	-1156.23999	655.62274	-355.17654	-1124.70374	628.37994	-336.43738	-1170.42114	503.38837	-311.38205	-1196.24805	299.24725	-341.59381	-1169.74841	277.39432	-320.73468	-1227.63416	261.07156	-327.26190	-1204.44971	230.47647	-325.22482	-1195.89697	69.35875	-269.24713	-1251.93726	32.76266	-221.71849	-1053.39941	32.84824	-258.49500	-1302.50757	851.87970	-14.11712	-1228.61719	892.39722	-369.62863	-1398.28735	1012.00482	-159.22478	-1195.18774	989.58380	-283.19818	-1233.20447	971.41394	-65.22513
501	4.16667	-1269.55310	1463.44556	-2.20175	-1391.68835	1381.33911	-284.02393	-1265.68567	1475.91284	-373.37402	-1281.21838	1094.08032	53.35204	-1105.15942	906.67151	83.56837	-1072.83057	934.03864	23.45773	-1035.54138	856.42407	71.18809	-1357.73279	1126.30774	-413.13486	-1282.35815	881.88043	-414.88531	-1313.45703	897.02167	-478.11697	-1296.17725	810.18207	-465.98257	-1282.20276	1013.24530	-40.91536	-1384.65735	1009.45972	-204.91943	-1378.53723	1019.62396	-244.89749	-1244.49158	1029.05408	-333.67847	-1260.40649	664.02002	-7.92520	-1225.28223	626.12195	-16.05618	-1285.12354	625.92883	-1.35907	-1255.04272	592.58698	-12.64898	-1323.18005	490.40051	-24.24067	-1434.06689	392.50513	17.89105	-1446.06653	342.31039	-5.33427	-1481.61243	390.93823	2.76984	-1495.00171	346.95282	-6.38783	-1668.68127	213.65764	-60.36578	-1704.70447	242.44156	-117.39995	-1660.55164	57.90540	-76.50202	-1131.87915	698.05780	-340.18314	-1105.60718	655.73578	-311.18365	-1150.17151	655.38800	-355.28958	-1119.07007	627.96222	-336.58688	-1166.61877	503.20898	-311.81976	-1194.62854	299.07254	-341.71774	-1168.02869	276.52917	-320.05386	-1226.41272	261.25476	-327.22424	-1203.47900	230.48535	-325.29901	-1195.87354	69.31382	-269.21686	-1251.96069	32.76258	-221.50766	-1053.35901	32.72947	-258.34210	-1292.27234	851.72009	-14.94294	-1220.85913	892.70349	-370.56860	-1390.03088	1012.53528	-160.19569	-1186.62659	990.40540	-283.87976	-1224.84924	972.47052	-65.97320
502	4.17500	-1262.19312	1464.54651	-3.64542	-1382.28455	1382.15540	-286.51993	-1255.89380	1476.55615	-374.95026	-1275.36121	1095.33423	51.91320	-1100.96130	906.67480	83.20322	-1068.17102	933.76147	23.05738	-1031.56543	855.83179	70.86320	-1345.37817	1125.87488	-415.44241	-1266.82446	882.67145	-415.26184	-1297.23218	896.86578	-478.68109	-1278.38354	810.28821	-466.01773	-1274.41333	1013.96130	-41.81116	-1376.51440	1009.93280	-205.47118	-1370.25720	1020.19849	-245.57538	-1236.17834	1029.74353	-334.52185	-1245.69971	665.09485	-8.70590	-1210.07141	627.87360	-16.85540	-1269.50549	626.44037	-1.80247	-1238.83179	593.63159	-13.07074	-1304.54370	490.50439	-24.46181	-1415.69958	394.14560	16.82945	-1428.10901	344.02863	-6.17036	-1463.24451	393.08759	1.54912	-1477.05859	348.94254	-7.61277	-1652.54785	218.97772	-62.97607	-1685.88196	247.74380	-121.25093	-1648.07568	62.46347	-75.35979	-1125.82043	697.95636	-340.36853	-1100.05176	655.10272	-311.00879	-1144.50818	655.41083	-355.46860	-1113.71313	627.61353	-336.59982	-1162.93591	502.82056	-312.00510	-1193.08423	298.85202	-341.74185	-1166.56030	276.34872	-320.31268	-1224.99780	261.41974	-327.30655	-1202.45032	230.51434	-325.52164	-1195.83997	69.32156	-269.24365	-1251.97217	32.70001	-221.14413	-1053.34656	32.61233	-258.16788	-1281.75671	851.55347	-15.65115	-1212.95947	892.95581	-371.03152	-1381.75854	1013.02124	-161.13406	-1178.33777	991.32825	-285.11111	-1216.41882	973.49707	-67.13365
503	4.18333	-1254.76123	1465.58655	-5.14226	-1373.04333	1382.95142	-289.00833	-1245.97583	1476.99829	-376.61838	-1269.79175	1096.33948	50.30313	-1097.07031	906.47815	82.99479	-1063.63184	933.13013	22.98500	-1028.04468	855.05469	70.81892	-1332.92627	1125.26892	-417.95554	-1249.84814	882.92377	-415.50479	-1280.67249	896.49457	-479.26541	-1260.46033	810.47949	-466.02695	-1266.45813	1014.72186	-42.77247	-1368.29309	1010.42749	-206.13577	-1362.13025	1020.81836	-246.38316	-1228.00806	1030.20215	-335.54028	-1231.01184	666.29956	-9.19309	-1194.66431	629.83105	-17.19103	-1253.93481	627.14539	-2.38750	-1222.73352	595.06879	-13.41629	-1285.90576	491.02264	-24.72350	-1397.20020	395.23724	15.79215	-1409.92517	345.39606	-7.26586	-1444.52209	394.75455	0.47794	-1458.86133	350.86584	-8.80677	-1635.63525	223.59123	-65.98533	-1668.19214	251.59018	-125.00493	-1632.43140	67.07965	-74.28279	-1119.94653	697.47650	-340.42047	-1094.71863	654.40637	-311.16766	-1138.90662	655.17310	-355.73633	-1108.46973	627.02991	-336.55933	-1159.54773	502.56970	-312.68567	-1191.24426	298.70667	-342.00797	-1165.03894	275.98044	-320.72623	-1223.56653	261.47430	-327.51749	-1201.22192	230.39557	-325.76288	-1195.84521	69.30279	-269.27487	-1252.15076	32.87935	-221.77785	-1053.34656	32.51817	-258.07166	-1270.92249	851.50885	-16.28840	-1205.12158	893.21478	-371.77744	-1373.51599	1013.57611	-161.96909	-1169.30774	992.02576	-286.35938	-1208.23083	974.66748	-67.68182
